<?xml version="1.0" encoding="UTF-8"?>
<svg id="_Слой_1" data-name="Слой 1" xmlns="http://www.w3.org/2000/svg" xmlns:xlink="http://www.w3.org/1999/xlink" version="1.1" viewBox="0 0 391.18 198.43">
  <defs>
    <style>
      .cls-1 {
        fill: #1e1e1c;
      }

      .cls-1, .cls-2, .cls-3, .cls-4, .cls-5, .cls-6, .cls-7, .cls-8, .cls-9, .cls-10, .cls-11, .cls-12, .cls-13 {
        stroke-width: 0px;
      }

      .cls-2 {
        fill: url(#linear-gradient);
      }

      .cls-3 {
        fill: url(#linear-gradient-11);
      }

      .cls-4 {
        fill: url(#linear-gradient-10);
      }

      .cls-5 {
        fill: url(#linear-gradient-4);
      }

      .cls-6 {
        fill: url(#linear-gradient-2);
      }

      .cls-7 {
        fill: url(#linear-gradient-3);
      }

      .cls-8 {
        fill: url(#linear-gradient-8);
      }

      .cls-9 {
        fill: url(#linear-gradient-9);
      }

      .cls-10 {
        fill: url(#linear-gradient-7);
      }

      .cls-11 {
        fill: url(#linear-gradient-5);
      }

      .cls-12 {
        fill: url(#linear-gradient-6);
      }

      .cls-13 {
        fill: #f7f3f4;
      }
    </style>
    <linearGradient id="linear-gradient" x1="5853.71" y1="-646.64" x2="5893.82" y2="-646.64" gradientTransform="translate(-5675.03 724.11)" gradientUnits="userSpaceOnUse">
      <stop offset="0" stop-color="#e52621"/>
      <stop offset=".15" stop-color="#db241f"/>
      <stop offset=".4" stop-color="#c2201b"/>
      <stop offset=".72" stop-color="#991b15"/>
      <stop offset="1" stop-color="#6f150f"/>
    </linearGradient>
    <linearGradient id="linear-gradient-2" x1="-5834.42" y1="-73.67" x2="-5870.18" y2="-31.32" gradientTransform="translate(-5584.87 284.16) rotate(177.62)" xlink:href="#linear-gradient"/>
    <linearGradient id="linear-gradient-3" x1="-5828.85" y1="-68.97" x2="-5864.62" y2="-26.62" gradientTransform="translate(-5584.87 284.16) rotate(177.62)" xlink:href="#linear-gradient"/>
    <linearGradient id="linear-gradient-4" x1="-5828.45" y1="-68.63" x2="-5864.21" y2="-26.27" gradientTransform="translate(-5584.87 284.16) rotate(177.62)" xlink:href="#linear-gradient"/>
    <linearGradient id="linear-gradient-5" x1="5996.08" y1="-642.87" x2="6017.31" y2="-642.87" xlink:href="#linear-gradient"/>
    <linearGradient id="linear-gradient-6" x1="6032.59" y1="-684.53" x2="6053.82" y2="-684.53" xlink:href="#linear-gradient"/>
    <linearGradient id="linear-gradient-7" x1="5573.77" y1="400.05" x2="5538" y2="442.4" gradientTransform="translate(-5439.7 284.16) rotate(2.38) scale(1 -1)" xlink:href="#linear-gradient"/>
    <linearGradient id="linear-gradient-8" x1="5579.33" y1="404.75" x2="5543.57" y2="447.1" gradientTransform="translate(-5439.7 284.16) rotate(2.38) scale(1 -1)" xlink:href="#linear-gradient"/>
    <linearGradient id="linear-gradient-9" x1="5579.74" y1="405.09" x2="5543.97" y2="447.44" gradientTransform="translate(-5439.7 284.16) rotate(2.38) scale(1 -1)" xlink:href="#linear-gradient"/>
    <linearGradient id="linear-gradient-10" x1="-5421.94" y1="-642.87" x2="-5400.71" y2="-642.87" gradientTransform="translate(-5349.54 724.11) rotate(-180) scale(1 -1)" xlink:href="#linear-gradient"/>
    <linearGradient id="linear-gradient-11" x1="-5385.43" y1="-684.53" x2="-5364.2" y2="-684.53" gradientTransform="translate(-5349.54 724.11) rotate(-180) scale(1 -1)" xlink:href="#linear-gradient"/>
  </defs>
  <g>
    <g>
      <path class="cls-1" d="M22.64,152.8c2.6,0,4.71,1.4,5.79,2.87l4.71-3.51c-2.24-3.24-5.91-5.23-10.5-5.23-7.71,0-13.1,5.59-13.1,13.3s5.39,13.3,13.1,13.3c4.59,0,8.27-2,10.5-5.23l-4.71-3.67c-1.08,1.44-3.2,3.04-5.79,3.04-4.31,0-7.23-3.12-7.23-7.43s2.91-7.43,7.23-7.43"/>
      <path class="cls-1" d="M59.96,167.66c-4.31,0-7.23-3.12-7.23-7.43s2.91-7.43,7.23-7.43,7.15,3.11,7.15,7.43-2.84,7.43-7.15,7.43M59.96,146.93c-7.71,0-13.1,5.59-13.1,13.3s5.39,13.3,13.1,13.3,13.02-5.59,13.02-13.3-5.31-13.3-13.02-13.3"/>
    </g>
    <polygon class="cls-1" points="104.18 162.83 94.28 147.25 88.6 147.25 88.6 173.21 94.48 173.21 94.48 157.67 104.34 173.21 110.05 173.21 110.05 147.25 104.18 147.25 104.18 162.83"/>
    <polygon class="cls-1" points="125.48 152.6 133.03 152.6 133.03 173.21 138.9 173.21 138.9 152.6 146.45 152.6 146.45 147.25 125.48 147.25 125.48 152.6"/>
    <rect class="cls-1" x="161.87" y="147.25" width="5.87" height="25.96"/>
    <polygon class="cls-1" points="199.5 162.83 189.6 147.25 183.93 147.25 183.93 173.21 189.8 173.21 189.8 157.67 199.66 173.21 205.37 173.21 205.37 147.25 199.5 147.25 199.5 162.83"/>
    <polygon class="cls-1" points="221.6 173.21 239.41 173.21 239.41 167.86 227.47 167.86 227.47 162.91 238.57 162.91 238.57 157.56 227.47 157.56 227.47 152.6 239.41 152.6 239.41 147.25 221.6 147.25 221.6 173.21"/>
    <polygon class="cls-1" points="271.02 162.83 261.11 147.25 255.44 147.25 255.44 173.21 261.31 173.21 261.31 157.67 271.17 173.21 276.88 173.21 276.88 147.25 271.02 147.25 271.02 162.83"/>
    <polygon class="cls-1" points="292.31 152.6 299.86 152.6 299.86 173.21 305.73 173.21 305.73 152.6 313.28 152.6 313.28 147.25 292.31 147.25 292.31 152.6"/>
    <path class="cls-1" d="M333.98,164.26l2.96-7.67,3.03,7.67h-5.99ZM334.74,147.25l-10.47,25.96h6.23l1.4-3.6h10.14l1.4,3.6h6.23l-10.5-25.96h-4.43Z"/>
    <polygon class="cls-1" points="370.14 147.25 364.27 147.25 364.27 173.21 382 173.21 382 167.86 370.14 167.86 370.14 147.25"/>
  </g>
  <g>
    <path class="cls-1" d="M377.57,47.42l-11.55,1.88s.39-.14.93-.34c0,0,0,0,0,0h0c.23-.09.54-.21.85-.33.26-.1.56-.23.86-.35.19-.08.37-.15.58-.24,1.15-.49,2.5-1.12,3.87-1.84.15-.08.3-.17.45-.25.53-.29,1.05-.6,1.57-.92.19-.12.39-.24.58-.37.48-.31.94-.64,1.39-.98.18-.13.36-.26.53-.4.59-.47,1.14-.96,1.61-1.46,3.78-4.08,2.71-7.56,2.53-7.99-.56-1.54-1.65-2.46-2.73-3.09-1.14-.68-2.53-.94-3.92-.62l-2.15.51-109.78,25.88c-.11.02-.21.06-.32.09-1.78.42-3.46.95-5.08,1.55-.43.16-.87.32-1.29.5-1.66.68-3.25,1.44-4.74,2.33-.17.1-.32.22-.49.32-1.43.88-2.77,1.87-4.04,2.95-.19.16-.39.32-.58.49-1.35,1.2-2.61,2.51-3.78,3.93,0,0-.01.02-.02.03.02-.02.03-.03.05-.05-.02.02-.03.03-.05.05-1.49,1.76-2.81,3.73-4,5.88l-11.99,21.12-11.6,20c-2.23,3.82-4.29,6.98-6.17,9.45-1.91,2.16-4.3,3.71-6.9,4.74-1.45.54-3.23,1.03-4.76,1.19-.61.06-1.19.16-1.84.16-2.07-.04-4.08-.46-5.97-1.2-2.62-1.03-4.91-2.83-6.73-4.98-3.57-4.22-5.5-9.38-6.63-15.31-.47-3.18-.8-6.46-.8-9.93,0-18.71,7.22-34.14,16.57-36.58-11.22.91-25.71,15.16-25.82,34.98l-13.45-23.65c-1.17-2.1-2.48-4-3.9-5.75,0,0,0,0,0,0h0c-1.25-1.54-2.61-2.95-4.06-4.23-.07-.06-.14-.11-.21-.17-1.43-1.24-2.95-2.35-4.57-3.34-.03-.02-.05-.04-.08-.05-1.56-.94-3.23-1.73-4.97-2.45-.34-.14-.68-.27-1.03-.39-1.76-.66-3.57-1.24-5.52-1.69L16.46,30.13c-.35-.08-.71-.13-1.05-.14-1.04-.04-2.04.24-2.9.75-1.08.63-2.16,1.55-2.73,3.09-.17.43-1.24,3.91,2.53,7.99.47.51,1.02.99,1.61,1.46.17.14.36.27.53.4.45.34.91.66,1.39.98.19.12.38.25.58.37.52.32,1.04.62,1.57.91.15.08.3.17.45.25,1.37.73,2.72,1.35,3.86,1.84.21.09.39.16.58.24.3.13.6.25.86.35.31.12.61.24.85.33h0q9.79,3.34,0,0c.54.2.94.34.94.34l-11.55-1.88c-2.24-.36-3.8,1.48-3.72,3.36v.38c.13,1.15,1.4,4.3,10.1,9.2.09.05.98.56,1.07.61,3.23,1.73,12.26,4.83,21,6.28l-15.39-1.51c-2.07-.21-3.31,1.28-3.15,3.73l.14,1.28c.91,5.78,4.96,7.82,11.02,9.51v.03s.02,0,.03,0c0,0-.02,0-.03,0l-.26,4.13c-.46,8.27,13.27,12.06,23.29,13.67l-.1,3.05c-.1,3.09,2.33,6.47,6.29,8.48l.5.23c10.58,4.62,43.08,4.91,46.9,4.9l37.17.81-.12-.22c4.85.08,9.68.16,14.41.22h0c-.54-1.01-1.09-1.95-1.65-2.87l-9.09-15.78c-3.33-6.03-9.67-15.83-13.02-19.62-4.97-5.62-5.13-7.89-2.55-13.07,4.05,2.6,8.33,8.32,10.97,13.11l23.34,40.71s.04.07.06.11c2.77,4.78,5.07,8.17,6.92,10.59,1.06,1.22,2.25,2.31,3.54,3.28.82.62,1.67,1.21,2.56,1.73,2.71,1.56,5.74,2.62,8.99,2.99l2.55.15,2.55-.15c1.22-.14,2.41-.39,3.56-.72,1.93-.54,3.76-1.29,5.46-2.27.9-.52,1.75-1.11,2.57-1.73,1.28-.98,2.48-2.06,3.54-3.28,1.85-2.42,4.15-5.82,6.92-10.59.02-.04.04-.07.06-.11l23.34-40.71c3.44-6.21,8-10.41,13.84-13.04,0,0,.26,7.92-5.41,13.01-3.76,3.38-9.7,13.59-13.02,19.62l-9.09,15.78c-.56.92-1.12,1.86-1.65,2.87h0c2.94-.04,5.93-.08,8.93-.13h0s42.53-.58,42.53-.58c3.82.01,36.32-.38,46.9-5l.5-.23c3.96-2.01,6.39-5.39,6.29-8.48l-.1-3.05c10.02-1.61,23.74-5.4,23.29-13.67l-.26-4.15c.05-.01.1-.03.15-.04h0s0,0,0,0c5.98-1.68,9.97-3.74,10.87-9.47l.14-1.28c.16-2.45-1.08-3.94-3.15-3.73l-15.39,1.51c8.74-1.44,17.77-4.54,21-6.28.09-.05.99-.56,1.08-.61,8.7-4.9,9.97-8.05,10.09-9.2v-.38c.09-1.88-1.48-3.73-3.71-3.36Z"/>
    <path class="cls-2" d="M180.58,82.47c-.48,1.53-.88,3.12-1.23,4.73-.25,1.12-.49,2.26-.67,3.41,2.33-6.55,6.99-11.63,12.7-14.01,1.74-.61,3.55-.95,5.42-.95,8.08,0,15.17,6.02,19.29,15.13l.57-.98,2.12-3.74c-.18-.74-.36-1.49-.58-2.21-.17-.58-.37-1.15-.57-1.71-.17-.48-.34-.95-.52-1.42-.21-.54-.44-1.08-.67-1.6-2.02-4.4-4.87-8.13-8.34-10.79-3.72-2.63-7.8-4.11-12.01-4.17-6.78.6-12.4,8.33-15.51,18.32Z"/>
    <g>
      <g>
        <path class="cls-6" d="M266.63,98.87c1.13-.05,2.16-.7,2.69-1.71l.65-1.25,2.6-5.09-11.81.49c-1.33.06-2.53.82-3.13,2.01l-3.16,6.18c.39-.09.8-.15,1.21-.17l10.96-.45Z"/>
        <path class="cls-7" d="M245.36,112.37l4.94-9.61c.3-.58.68-1.09,1.12-1.54l-6.42.27-5.68,11.14,6.04-.25Z"/>
        <path class="cls-5" d="M267.25,76.96l11.5-.48c.97-.04,1.86-.51,2.43-1.3l5.54-7.59c.22-.3.46-.57.72-.82l-22.32.93c-1.78.07-3.38,1.1-4.19,2.69l-4.36,8.51,6.74-.28c1.06-.99,2.46-1.59,3.95-1.65Z"/>
      </g>
      <path class="cls-11" d="M325.62,78.32l-4.57,8.89,12.69-.53c1.68-.07,3.2-1.04,3.97-2.53l4.57-8.89-12.69.53c-1.68.07-3.2,1.04-3.97,2.53Z"/>
      <path class="cls-13" d="M309.21,57.12l-4.57,8.89,12.69-.53c1.68-.07,3.2-1.04,3.97-2.53l4.57-8.89-12.69.53c-1.68.07-3.2,1.04-3.97,2.53Z"/>
      <path class="cls-13" d="M283.36,55.55l-4.57,8.89,12.69-.53c1.68-.07,3.2-1.04,3.97-2.53l4.57-8.89-12.69.53c-1.68.07-3.2,1.04-3.97,2.53Z"/>
      <path class="cls-13" d="M339.13,55.55l-4.57,8.89,12.69-.53c1.68-.07,3.2-1.04,3.97-2.53l4.57-8.89-12.69.53c-1.68.07-3.2,1.04-3.97,2.53Z"/>
      <path class="cls-13" d="M330.44,45.16l-4.57,8.89,12.69-.53c1.68-.07,3.2-1.04,3.97-2.53l4.57-8.89-12.69.53c-1.68.07-3.2,1.04-3.97,2.53Z"/>
      <path class="cls-12" d="M362.13,36.66l-4.57,8.89,12.69-.53c1.68-.07,3.2-1.04,3.97-2.53l4.57-8.89-12.69.53c-1.68.07-3.2,1.04-3.97,2.53Z"/>
      <path class="cls-13" d="M272.67,89.31c.24-.01.48-.04.71-.09.21-.04.41-.1.61-.17.67-.23,1.27-.6,1.77-1.1.34-.34.64-.74.87-1.18l3.28-6.38c.77-1.5,2.28-2.47,3.97-2.53l10.25-.43c1.43-.06,2.75-.77,3.59-1.92l6.92-9.51-13.12.54c-.2,0-.4.03-.6.07-1.19.21-2.26.86-2.98,1.85l-5.54,7.59c-.84,1.15-2.16,1.86-3.58,1.92l-11.5.48c-.93.04-1.8.35-2.53.87-.59.43-1.09.99-1.44,1.66l-4.57,8.9.62-.03,13.27-.55Z"/>
      <path class="cls-13" d="M261,111.68c1.68-.07,3.2-1.04,3.97-2.53l3.28-6.38c.56-1.09,1.52-1.9,2.66-2.29.42-.14.86-.23,1.31-.25l9.71-.4c.58-.02,1.15-.16,1.67-.37.49-.21.95-.5,1.35-.85.43-.39.8-.85,1.07-1.38l4.54-8.74-12.67.53c-.46.02-.9.11-1.33.25-.67.23-1.27.61-1.77,1.1-.34.34-.63.73-.86,1.16l-3.29,6.33c-.6,1.15-1.65,1.99-2.87,2.34-.35.1-.71.16-1.09.18l-10.96.45c-1.74.07-3.31,1.07-4.11,2.62l-4.53,8.81,13.9-.58Z"/>
      <path class="cls-13" d="M304.42,90.25l-3.29,6.33c-.77,1.49-2.28,2.45-3.95,2.51l-9.75.4c-.58.02-1.15.16-1.67.38-.49.21-.95.5-1.35.85-.44.39-.81.86-1.08,1.4l-4.53,8.81,12.7-.53c1.68-.07,3.2-1.04,3.97-2.53l3.28-6.38c.77-1.5,2.28-2.47,3.97-2.53l9.71-.4c1.73-.07,3.3-1.07,4.1-2.6l4.54-8.74-12.67.53c-1.67.07-3.18,1.03-3.95,2.51Z"/>
      <path class="cls-13" d="M316.31,67.63l-3.29,6.33c-.77,1.49-2.28,2.45-3.95,2.51l-9.75.4c-.58.02-1.15.16-1.67.38-.49.21-.95.5-1.35.85-.44.39-.81.86-1.08,1.4l-4.53,8.81,12.7-.53c1.68-.07,3.2-1.04,3.97-2.53l3.28-6.38c.77-1.5,2.28-2.47,3.97-2.53l9.71-.4c1.73-.07,3.3-1.07,4.1-2.6l4.54-8.74-12.67.53c-1.67.07-3.18,1.03-3.95,2.51Z"/>
    </g>
    <g>
      <g>
        <path class="cls-10" d="M126.82,98.87c-1.13-.05-2.16-.7-2.69-1.71l-.65-1.25-2.6-5.09,11.81.49c1.33.06,2.53.82,3.13,2.01l3.16,6.18c-.39-.09-.8-.15-1.21-.17l-10.96-.45Z"/>
        <path class="cls-8" d="M148.1,112.37l-4.94-9.61c-.3-.58-.68-1.09-1.12-1.54l6.42.27,5.68,11.14-6.04-.25Z"/>
        <path class="cls-9" d="M126.2,76.96l-11.5-.48c-.97-.04-1.86-.51-2.43-1.3l-5.54-7.59c-.22-.3-.46-.57-.72-.82l22.32.93c1.78.07,3.38,1.1,4.19,2.69l4.36,8.51-6.74-.28c-1.06-.99-2.46-1.59-3.95-1.65Z"/>
      </g>
      <path class="cls-4" d="M67.83,78.32l4.57,8.89-12.69-.53c-1.68-.07-3.2-1.04-3.97-2.53l-4.57-8.89,12.69.53c1.68.07,3.2,1.04,3.97,2.53Z"/>
      <path class="cls-13" d="M84.24,57.12l4.57,8.89-12.69-.53c-1.68-.07-3.2-1.04-3.97-2.53l-4.57-8.89,12.69.53c1.68.07,3.2,1.04,3.97,2.53Z"/>
      <path class="cls-13" d="M110.09,55.55l4.57,8.89-12.69-.53c-1.68-.07-3.2-1.04-3.97-2.53l-4.57-8.89,12.69.53c1.68.07,3.2,1.04,3.97,2.53Z"/>
      <path class="cls-13" d="M54.33,55.55l4.57,8.89-12.69-.53c-1.68-.07-3.2-1.04-3.97-2.53l-4.57-8.89,12.69.53c1.68.07,3.2,1.04,3.97,2.53Z"/>
      <path class="cls-13" d="M63.01,45.16l4.57,8.89-12.69-.53c-1.68-.07-3.2-1.04-3.97-2.53l-4.57-8.89,12.69.53c1.68.07,3.2,1.04,3.97,2.53Z"/>
      <path class="cls-3" d="M31.33,36.66l4.57,8.89-12.69-.53c-1.68-.07-3.2-1.04-3.97-2.53l-4.57-8.89,12.69.53c1.68.07,3.2,1.04,3.97,2.53Z"/>
      <path class="cls-13" d="M120.78,89.31c-.24-.01-.48-.04-.71-.09-.21-.04-.41-.1-.61-.17-.67-.23-1.27-.6-1.77-1.1-.34-.34-.64-.74-.87-1.18l-3.28-6.38c-.77-1.5-2.28-2.47-3.97-2.53l-10.25-.43c-1.43-.06-2.75-.77-3.59-1.92l-6.92-9.51,13.12.54c.2,0,.4.03.6.07,1.19.21,2.26.86,2.98,1.85l5.54,7.59c.84,1.15,2.16,1.86,3.58,1.92l11.5.48c.93.04,1.8.35,2.53.87.59.43,1.09.99,1.44,1.66l4.57,8.9-.62-.03-13.27-.55Z"/>
      <path class="cls-13" d="M132.45,111.68c-1.68-.07-3.2-1.04-3.97-2.53l-3.28-6.38c-.56-1.09-1.52-1.9-2.66-2.29-.42-.14-.86-.23-1.31-.25l-9.71-.4c-.58-.02-1.15-.16-1.67-.37-.49-.21-.95-.5-1.35-.85-.43-.39-.8-.85-1.07-1.38l-4.54-8.74,12.67.53c.46.02.9.11,1.33.25.67.23,1.27.61,1.77,1.1.34.34.63.73.86,1.16l3.29,6.33c.6,1.15,1.65,1.99,2.87,2.34.35.1.71.16,1.09.18l10.96.45c1.74.07,3.31,1.07,4.11,2.62l4.53,8.81-13.9-.58Z"/>
      <path class="cls-13" d="M89.03,90.25l3.29,6.33c.77,1.49,2.28,2.45,3.95,2.51l9.75.4c.58.02,1.15.16,1.67.38.49.21.95.5,1.35.85.44.39.81.86,1.08,1.4l4.53,8.81-12.7-.53c-1.68-.07-3.2-1.04-3.97-2.53l-3.28-6.38c-.77-1.5-2.28-2.47-3.97-2.53l-9.71-.4c-1.73-.07-3.3-1.07-4.1-2.6l-4.54-8.74,12.67.53c1.67.07,3.18,1.03,3.95,2.51Z"/>
      <path class="cls-13" d="M77.14,67.63l3.29,6.33c.77,1.49,2.28,2.45,3.95,2.51l9.75.4c.58.02,1.15.16,1.67.38.49.21.95.5,1.35.85.44.39.81.86,1.08,1.4l4.53,8.81-12.7-.53c-1.68-.07-3.2-1.04-3.97-2.53l-3.28-6.38c-.77-1.5-2.28-2.47-3.97-2.53l-9.71-.4c-1.73-.07-3.3-1.07-4.1-2.6l-4.54-8.74,12.67.53c1.67.07,3.18,1.03,3.95,2.51Z"/>
    </g>
  </g>
</svg>